<svg width="180" height="50" viewBox="0 0 180 50" fill="none" xmlns="http://www.w3.org/2000/svg">
  <rect width="180" height="50" rx="5" fill="#3E624F" />
  <path d="M15 35V15H20.5C22.5 15 24.1667 15.3333 25.5 16C26.8333 16.6667 27.8333 17.5833 28.5 18.75C29.1667 19.9167 29.5 21.25 29.5 22.75C29.5 24.25 29.1667 25.5833 28.5 26.75C27.8333 27.9167 26.8333 28.8333 25.5 29.5C24.1667 30.1667 22.5 30.5 20.5 30.5H17.5V35H15ZM17.5 28.5H20.5C22.1667 28.5 23.4167 28.0833 24.25 27.25C25.0833 26.4167 25.5 25.25 25.5 23.75C25.5 22.25 25.0833 21.0833 24.25 20.25C23.4167 19.4167 22.1667 19 20.5 19H17.5V28.5Z" fill="white"/>
  <path d="M37 35L31 15H33.5L38.5 32H39L44 15H46.5L40.5 35H37Z" fill="white"/>
  <path d="M54 35V15H56.5V35H54Z" fill="white"/>
  <path d="M65 35V15H67.5V33H77V35H65Z" fill="white"/>
  <path d="M84 35V15H86.5V33H96V35H84Z" fill="white"/>
  <path d="M103 35V15H105.5V35H103Z" fill="white"/>
  <path d="M114 35V15H116.5V33H126V35H114Z" fill="white"/>
  <path d="M133 35V15H145V17H135.5V24H144V26H135.5V33H145V35H133Z" fill="white"/>
  <path d="M152 35V15H154.5V35H152Z" fill="white"/>
  <path d="M163 35V15H165.5V35H163Z" fill="white"/>
</svg> 